<svg width="402" height="333" viewBox="0 0 402 333" fill="none" xmlns="http://www.w3.org/2000/svg">
<path d="M10.5527 188.22L12.842 194.709C12.842 194.709 65.165 200.202 97.8679 248.627C97.8679 248.627 104.736 275.089 129.262 264.604C129.262 264.604 182.24 260.609 280.019 333L402 140.295V132.804L212.327 136.798L68.1086 143.289L10.5527 188.22Z" fill="#984F23"/>
<path d="M19.3821 175.24L10.5527 188.221C10.5527 188.221 66.1471 190.217 103.099 249.129C103.099 249.129 108.332 263.106 128.28 259.613C128.28 259.613 181.912 254.619 280.019 325.013L402 132.806L320.898 117.827L103.099 94.8627L19.3821 175.24Z" fill="#A85C29"/>
<path d="M0 168.955C0 168.955 11.2157 171.387 17.1541 185.249C17.1541 185.249 61.8619 170.318 106.919 240.706C106.919 240.706 114.604 254.036 128.924 249.236C128.924 249.236 179.221 240.17 272.829 313.756L285.776 305.782L240.346 167.12L90.5029 111.132L35.3173 142.592L0 168.955Z" fill="#ECCAC1"/>
<path d="M398.797 116.727L285.776 305.783C285.776 305.783 203.512 228.451 117.77 237.039L118.309 236.38L258.929 66.4975C258.929 66.4975 329.35 49.5484 397.312 115.286C397.812 115.759 398.298 116.233 398.797 116.727Z" fill="#FFECE1"/>
<path d="M258.931 66.4973L117.769 237.039C117.769 237.039 79.673 151.099 0 168.954L3.56141 165.06L153.707 1.04848C153.707 1.04848 213.671 -2.80266 257.298 63.9436C257.838 64.788 258.392 65.6323 258.931 66.4973Z" fill="#FFECE1"/>
<path d="M258.931 66.4973L117.769 237.039C117.769 237.039 79.673 151.099 0 168.954L3.56141 165.06C38.1637 141.644 78.9985 141.047 117.257 133.202C166.159 123.173 213.806 99.4689 257.298 63.9436C257.838 64.788 258.392 65.6323 258.931 66.4973Z" fill="#FADFD7"/>
<path d="M398.797 116.727L285.776 305.783C285.776 305.783 203.512 228.451 117.77 237.039L118.309 236.38C120.899 235.68 123.515 235.083 126.159 234.609C161.559 228.348 196.282 230.799 230.384 247.645C249.447 257.057 267.686 270.361 284.36 287.31C318.623 225.095 356.478 167.451 397.312 115.285C397.812 115.759 398.298 116.233 398.797 116.727Z" fill="#FADFD7"/>
<path d="M259.207 85.594C296.646 84.5087 334.227 100.506 365.897 131.011" stroke="#E9BEB0" stroke-width="1.33333" stroke-miterlimit="10"/>
<path d="M251.301 96.5481C288.739 95.4628 326.32 111.461 357.989 141.965" stroke="#E9BEB0" stroke-width="1.33333" stroke-miterlimit="10"/>
<path d="M243.395 107.503C280.834 106.42 318.415 122.415 350.084 152.922" stroke="#E9BEB0" stroke-width="1.33333" stroke-miterlimit="10"/>
<path d="M235.488 118.458C272.928 117.375 310.509 133.373 342.178 163.877" stroke="#E9BEB0" stroke-width="1.33333" stroke-miterlimit="10"/>
<path d="M227.582 129.413C265.021 128.33 302.601 144.328 334.27 174.832" stroke="#E9BEB0" stroke-width="1.33333" stroke-miterlimit="10"/>
<path d="M219.674 140.369C257.113 139.284 294.694 155.282 326.364 185.786" stroke="#E9BEB0" stroke-width="1.33333" stroke-miterlimit="10"/>
<path d="M211.77 151.325C249.209 150.24 286.788 166.238 318.458 196.744" stroke="#E9BEB0" stroke-width="1.33333" stroke-miterlimit="10"/>
<path d="M203.863 162.279C241.303 161.196 278.884 177.192 310.553 207.698" stroke="#E9BEB0" stroke-width="1.33333" stroke-miterlimit="10"/>
<path d="M195.957 173.234C233.395 172.15 270.976 188.148 302.645 218.652" stroke="#E9BEB0" stroke-width="1.33333" stroke-miterlimit="10"/>
<path d="M188.049 184.19C225.488 183.106 263.068 199.104 294.737 229.608" stroke="#E9BEB0" stroke-width="1.33333" stroke-miterlimit="10"/>
<path d="M180.145 195.146C217.584 194.06 255.165 210.058 286.834 240.562" stroke="#E9BEB0" stroke-width="1.33333" stroke-miterlimit="10"/>
<path d="M172.236 206.102C209.676 205.018 247.255 221.014 278.925 251.521" stroke="#E9BEB0" stroke-width="1.33333" stroke-miterlimit="10"/>
<path d="M156.867 23.6835C156.867 23.6835 201.226 15.1513 233.01 70.0723" stroke="#E9BEB0" stroke-width="1.33333" stroke-miterlimit="10"/>
<path d="M148.809 32.3297C148.809 32.3297 194.241 24.1785 225.152 79.5938" stroke="#E9BEB0" stroke-width="1.33333" stroke-miterlimit="10"/>
<path d="M140.752 40.9728C140.752 40.9728 187.257 33.2046 217.294 89.1162" stroke="#E9BEB0" stroke-width="1.33333" stroke-miterlimit="10"/>
<path d="M132.691 49.62C132.691 49.62 180.269 42.2308 209.434 98.6387" stroke="#E9BEB0" stroke-width="1.33333" stroke-miterlimit="10"/>
<path d="M124.635 58.2671C124.635 58.2671 173.284 51.2609 201.576 108.163" stroke="#E9BEB0" stroke-width="1.33333" stroke-miterlimit="10"/>
<path d="M116.576 66.9115C116.576 66.9115 166.298 60.2842 193.718 117.681" stroke="#E9BEB0" stroke-width="1.33333" stroke-miterlimit="10"/>
<path d="M108.518 75.5576C108.518 75.5576 159.312 69.3113 185.858 127.204" stroke="#E9BEB0" stroke-width="1.33333" stroke-miterlimit="10"/>
<path d="M100.455 84.2048C100.455 84.2048 152.323 78.3375 177.995 136.727" stroke="#E9BEB0" stroke-width="1.33333" stroke-miterlimit="10"/>
<path d="M92.4004 92.85C92.4004 92.85 145.341 87.3657 170.142 146.249" stroke="#E9BEB0" stroke-width="1.33333" stroke-miterlimit="10"/>
<path d="M84.3398 101.496C84.3398 101.496 138.355 96.3908 162.279 155.771" stroke="#E9BEB0" stroke-width="1.33333" stroke-miterlimit="10"/>
<path d="M76.2832 110.142C76.2832 110.142 131.369 105.418 154.422 165.292" stroke="#E9BEB0" stroke-width="1.33333" stroke-miterlimit="10"/>
<path d="M68.2246 118.788C68.2246 118.788 124.384 114.446 146.563 174.812" stroke="#E9BEB0" stroke-width="1.33333" stroke-miterlimit="10"/>
<path d="M60.166 127.433C60.166 127.433 117.398 123.472 138.705 184.337" stroke="#E9BEB0" stroke-width="1.33333" stroke-miterlimit="10"/>
<path d="M52.1074 136.078C52.1074 136.078 110.413 132.499 130.846 193.857" stroke="#E9BEB0" stroke-width="1.33333" stroke-miterlimit="10"/>
<path d="M44.0488 144.724C44.0488 144.724 103.427 141.524 122.987 203.379" stroke="#E9BEB0" stroke-width="1.33333" stroke-miterlimit="10"/>
<path d="M23.6699 146.538L155.001 4.76455C155.001 4.76455 197.766 -2.96244 252.171 61.1642C252.171 61.1642 192.957 5.53685 157.278 8.24089L23.6699 146.538Z" fill="#FFF3EE"/>
<path d="M159.051 190.189L261.534 70.0503C261.534 70.0503 318.722 56.9152 389.829 115.247C389.829 115.247 313.915 69.278 266.342 74.6861L159.051 190.189Z" fill="#FFF3EE"/>
<path d="M371.912 151.675C366.376 159.794 360.841 167.91 355.304 176.03C354.708 176.903 342.587 170.861 341.086 170.305C336.314 168.53 331.515 166.894 326.689 165.393C316.818 162.325 306.842 159.826 296.8 157.901C276.713 154.054 256.358 152.507 236.027 153.298C225.146 153.722 214.311 155.951 203.477 156.48C211.155 150.926 222.181 149.43 230.671 147.157C242.01 144.123 253.464 141.911 264.966 140.525C287.86 137.768 310.943 138.274 333.688 142.068C346.572 144.216 359.346 147.416 371.912 151.675" fill="url(#paint0_linear_1127:1050)"/>
<path d="M360.805 26.232L222.853 131.821L219.803 122.531L354.124 19.7181C354.124 19.7181 357.621 19.9487 360.805 26.232Z" fill="#FFDBA8"/>
<path d="M362.623 30.6712C363.197 32.4176 363.601 34.026 363.87 35.5294L225.909 141.129L222.854 131.822L360.804 26.2331C361.431 27.4605 362.049 28.9248 362.623 30.6712Z" fill="#FFCF81"/>
<path d="M363.872 35.5305C365.265 43.1833 363.287 47.6214 363.287 47.6214L228.966 150.435L225.91 141.128L363.872 35.5305Z" fill="#FFB25A"/>
<path d="M227.87 134.594C228.362 136.096 228.741 137.478 229.022 138.746L211.568 150.623C210.83 148.642 209.91 146.935 208.785 145.668L219.803 122.532C219.803 122.532 224.269 123.634 227.87 134.594Z" fill="#FFECD7"/>
<path d="M211.568 150.623L203.951 155.809L208.785 145.668C209.91 146.934 210.83 148.642 211.568 150.623Z" fill="#84422D"/>
<path d="M229.022 138.745C230.834 146.8 228.965 150.435 228.965 150.435L212.581 153.971C212.298 152.801 211.962 151.67 211.568 150.624L229.022 138.745Z" fill="#F8D7BF"/>
<path d="M212.582 153.969L203.938 155.837L203.952 155.808L211.569 150.622C211.963 151.671 212.297 152.801 212.582 153.969Z" fill="#6D3020"/>
<path d="M391.439 8.61401C392.037 10.4366 392.377 12.3416 392.482 14.2548L366.012 34.5176L359.74 15.4184L377.719 1.6593C382.76 -2.20008 388.906 0.90143 391.439 8.61401Z" fill="#FFAEAE"/>
<path d="M392.486 14.2544C392.618 16.3962 392.446 18.5216 392.009 20.5275C391.175 24.3189 389.402 27.6346 386.886 29.5581L368.907 43.3213L366.016 34.5151L392.486 14.2544Z" fill="#FF9595"/>
<path d="M372.845 22.8482C376.329 33.4584 373.518 39.7911 373.518 39.7911L363.286 47.6211C363.286 47.6211 365.263 43.183 363.87 35.5302C363.599 34.0268 363.197 32.4163 362.622 30.6719C362.049 28.9255 361.431 27.4613 360.803 26.2339C357.62 19.9485 354.123 19.7199 354.123 19.7199L364.355 11.8878C364.355 11.8878 369.355 12.2215 372.845 22.8482Z" fill="#F07C34"/>
<path d="M364.062 29.6024C365.493 34.1331 365.984 39.3415 365.449 44.3047C366.852 43.1288 368.253 41.9569 369.655 40.7831C369.828 33.3094 367.506 25.8007 363.615 21.2555C362.671 20.1537 361.605 19.2167 360.449 18.7471C359.726 18.4505 357.711 18.467 358.817 20.1681C359.773 21.6386 360.911 22.7321 361.809 24.3405C362.702 25.9407 363.464 27.7098 364.062 29.6024Z" fill="#DA6821"/>
<path d="M369.211 26.5293C370.545 30.6585 371.045 35.4034 370.627 39.9609C371.423 39.6355 372.192 38.925 372.563 37.8027C372.896 36.7956 372.871 35.6094 372.791 34.4911C372.404 29.0933 370.881 23.8994 368.505 19.8609C368.028 19.0515 364.329 14.0121 365.126 17.7376C365.444 19.2327 366.204 20.1554 366.871 21.2819C367.802 22.8573 368.595 24.6264 369.211 26.5293Z" fill="#DA6821"/>
<path d="M370.407 10.191C369.916 10.7141 369.402 11.7747 369.834 12.4069C370.078 12.7632 370.469 12.6788 370.798 12.5696C374 11.5172 377.2 10.4628 380.399 9.41043C381.592 9.01914 387.6 8.0924 386.118 4.92911C384.885 2.29921 380.43 3.95911 378.882 4.49456C375.855 5.54694 372.955 7.47663 370.407 10.191Z" fill="#FFCBCB"/>
<defs>
<linearGradient id="paint0_linear_1127:1050" x1="203.683" y1="164.483" x2="372.131" y2="160.145" gradientUnits="userSpaceOnUse">
<stop stop-color="#FADFD7"/>
<stop offset="1" stop-color="white"/>
</linearGradient>
</defs>
</svg>
