<svg width="620" height="485" viewBox="0 0 620 485" fill="none" xmlns="http://www.w3.org/2000/svg">
<path d="M604.609 483.977L533.842 210.685C532.437 205.243 528.125 201.519 523.25 201.519H93.7373C88.8135 201.519 84.4845 205.321 83.1131 210.859L15.584 483.977" stroke="#66B0F0" stroke-width="6" stroke-miterlimit="10"/>
<path d="M211.397 109.161H399.263" stroke="#66B0F0" stroke-width="6" stroke-miterlimit="10"/>
<path d="M619.4 483.977H0.200195L111.352 406.992H509.95L619.4 483.977Z" fill="#D0F0E4"/>
<path d="M255.192 157L239.23 195.364H191L210.381 157H255.192Z" fill="white" stroke="#3FB1B5" stroke-width="5" stroke-miterlimit="10"/>
<path d="M244.617 166.359C244.617 166.359 242.519 162.172 237.479 163.252C233.712 164.043 229.251 167.671 226.508 165.722C223.765 163.773 221.337 161.342 217.784 162.5C214.232 163.658 211.604 165.877 211.604 165.877" stroke="#3FB1B5" stroke-width="5" stroke-miterlimit="10"/>
<path d="M242.964 172.341C242.964 172.341 240.866 168.154 235.826 169.235C232.059 170.026 227.598 173.654 224.855 171.705C222.112 169.756 219.683 167.324 216.131 168.482C212.578 169.64 209.951 171.859 209.951 171.859" stroke="#3FB1B5" stroke-width="5" stroke-miterlimit="10"/>
<path d="M276.595 150.689H320.975V195.209H276.595C276.595 195.209 276.595 149.01 276.595 150.689Z" fill="#FFCF2D"/>
<path d="M442.55 357.54L421.913 297.524H455.141L442.55 357.54Z" fill="#9A3B82"/>
<path d="M385.926 217.42C390.354 207.636 399.062 201.519 408.529 201.519H434.09L451.456 217.42H385.926Z" fill="#9A3B82"/>
<path d="M482.833 287.683H418.443L442.682 356.401C440.997 353.198 430.901 356.536 420.211 364.197C409.653 371.762 402.515 380.87 403.969 384.19L351.723 278.014C338.175 251.229 354.698 217.42 381.333 217.42H525.627L525.941 218.578C535.359 252.735 513.549 287.683 482.833 287.683Z" fill="#3FB1B5"/>
<path d="M528.122 237.123C527.891 243.395 526.701 249.454 524.686 255.07L449.011 217.439H524.124L525.875 223.422C527.098 227.011 527.775 232.048 528.122 237.123Z" fill="#E6E6E6"/>
<path d="M442.699 356.401C444.384 359.604 437.015 368.346 426.341 376.007C415.651 383.668 405.72 387.509 404.035 384.305C402.35 381.102 409.537 372.051 420.227 364.39C430.901 356.729 440.997 353.198 442.699 356.401Z" fill="#66B0F0"/>
<path d="M418.988 364.429L371.997 267.401C368.313 259.72 373.055 250.226 380.606 250.226H472.126C484.452 250.226 493.655 236.968 491.111 222.881" stroke="white" stroke-width="6" stroke-miterlimit="10" stroke-linecap="round"/>
<path d="M403.49 384.518C401.805 381.314 409.091 371.125 420.228 363.541C432.735 355.031 440.832 352.503 443.244 357.019" stroke="white" stroke-width="6" stroke-miterlimit="10" stroke-linecap="round"/>
<path d="M443.608 357.443L412.908 271.955" stroke="white" stroke-width="6" stroke-miterlimit="10" stroke-linecap="round"/>
<path d="M379.531 216.783H454.43" stroke="white" stroke-width="6" stroke-miterlimit="10"/>
<path d="M421.896 388.724L417.435 381.623L411.288 371.858C413.8 369.388 416.823 366.822 420.21 364.39C426.952 359.566 433.445 356.362 437.758 355.475L440.748 362.441L444.483 371.125C441.839 382.105 421.896 388.724 421.896 388.724Z" fill="#E57281"/>
<path d="M440.765 362.441C437.989 366.397 432.768 371.395 426.341 376.007C423.251 378.227 420.227 380.118 417.451 381.623L411.305 371.858C413.816 369.388 416.84 366.822 420.227 364.39C426.968 359.566 433.462 356.362 437.774 355.475L440.765 362.441Z" fill="#9A3B82"/>
<path d="M464.906 409.392L419.567 447.428C415.717 450.554 409.735 453.159 410.529 441.851C411.636 426.258 414.593 403.062 421.896 388.705C422.21 388.609 441.84 381.99 444.483 371.106L465.153 388.261C471.102 393.665 470.969 404.201 464.906 409.392Z" fill="white" stroke="#FFCF2D" stroke-width="6" stroke-miterlimit="10"/>
<path d="M419.798 393.742C423.4 394.533 443.624 386.158 446.763 373.248" stroke="#FFCF2D" stroke-width="6" stroke-miterlimit="10" stroke-linecap="round"/>
<path d="M414.922 443.51C414.922 443.51 444.515 395.498 465.565 398.199C488.482 401.113 396.185 471.511 414.922 443.51Z" fill="#FFCF2D"/>
<path d="M414.08 450.052C411.784 450.226 409.355 447.099 412.709 442.082C412.709 442.082 443.508 392.294 465.434 395.112C468.821 395.536 469.961 398.759 469.168 401.538" stroke="#FFCF2D" stroke-width="6" stroke-miterlimit="10" stroke-linecap="round"/>
<path d="M528.286 241.04C517.811 238.146 491.738 230.523 461.997 222.496C448.018 218.732 436.32 207.617 430.289 192.411L403.208 123.982L419.599 93.6458C424.638 84.3058 433.23 78.3621 442.665 77.6867L458.791 76.5288C475.05 75.371 488.103 87.2197 493.06 105.34L525.858 217.42C529.46 227.918 528.286 241.04 528.286 241.04Z" fill="white" stroke="#FE5244" stroke-width="6" stroke-miterlimit="10"/>
<path d="M417.467 127.822C417.467 127.822 426.092 143.646 445.738 147.138" stroke="#FE5244" stroke-width="6" stroke-miterlimit="10"/>
<path d="M429.099 99.0296C428.207 97.9104 426.637 98.2191 426.092 99.5893C425.481 101.133 426.588 102.851 428.025 102.6C429.495 102.349 430.107 100.284 429.099 99.0296Z" fill="#FFCF2D" stroke="#FE5244" stroke-width="6" stroke-miterlimit="10" stroke-linejoin="round"/>
<path d="M470.256 132.009C469.364 130.89 467.794 131.199 467.249 132.569C466.638 134.112 467.745 135.83 469.182 135.579C470.653 135.328 471.264 133.263 470.256 132.009Z" fill="#FFCF2D" stroke="#FE5244" stroke-width="6" stroke-miterlimit="10" stroke-linejoin="round"/>
<path d="M483.293 145.517C482.401 144.398 480.831 144.707 480.286 146.077C479.675 147.621 480.782 149.338 482.219 149.087C483.673 148.856 484.285 146.791 483.293 145.517Z" fill="#FFCF2D" stroke="#FE5244" stroke-width="6" stroke-miterlimit="10" stroke-linejoin="round"/>
<path d="M508.294 221.955C507.402 220.836 505.832 221.144 505.287 222.515C504.676 224.058 505.783 225.776 507.22 225.525C508.674 225.274 509.286 223.229 508.294 221.955Z" fill="#FFCF2D" stroke="#FE5244" stroke-width="6" stroke-miterlimit="10" stroke-linejoin="round"/>
<path d="M494.297 185.425C493.405 184.305 491.835 184.614 491.29 185.984C490.679 187.528 491.786 189.246 493.223 188.995C494.694 188.744 495.305 186.679 494.297 185.425Z" fill="#FFCF2D" stroke="#FE5244" stroke-width="6" stroke-miterlimit="10" stroke-linejoin="round"/>
<path d="M500.097 159.141C498.809 159.334 498.098 161.013 498.743 162.326C499.47 163.811 501.304 163.754 501.965 162.229C502.642 160.685 501.551 158.91 500.097 159.141Z" fill="#FFCF2D" stroke="#FE5244" stroke-width="6" stroke-miterlimit="10" stroke-linejoin="round"/>
<path d="M510.656 198.123C509.367 198.316 508.657 199.994 509.301 201.307C510.028 202.793 511.862 202.735 512.523 201.21C513.201 199.666 512.127 197.891 510.656 198.123Z" fill="#FFCF2D" stroke="#FE5244" stroke-width="6" stroke-miterlimit="10" stroke-linejoin="round"/>
<path d="M466.87 156.073C465.977 154.954 464.408 155.263 463.862 156.633C463.251 158.177 464.358 159.894 465.796 159.643C467.25 159.392 467.861 157.347 466.87 156.073Z" fill="#FFCF2D" stroke="#FE5244" stroke-width="6" stroke-miterlimit="10" stroke-linejoin="round"/>
<path d="M457.767 177.937C456.875 176.818 455.305 177.127 454.76 178.497C454.148 180.041 455.255 181.758 456.693 181.507C458.163 181.257 458.775 179.192 457.767 177.937Z" fill="#FFCF2D" stroke="#FE5244" stroke-width="6" stroke-miterlimit="10" stroke-linejoin="round"/>
<path d="M441.474 170.295C442.433 169.253 442.168 167.42 440.995 166.783C439.673 166.069 438.203 167.362 438.418 169.041C438.632 170.739 440.384 171.453 441.474 170.295Z" fill="#FFCF2D" stroke="#FE5244" stroke-width="6" stroke-miterlimit="10" stroke-linejoin="round"/>
<path d="M455.931 207.926C456.89 206.884 456.625 205.05 455.452 204.414C454.13 203.7 452.66 204.992 452.875 206.671C453.089 208.389 454.857 209.103 455.931 207.926Z" fill="#FFCF2D" stroke="#FE5244" stroke-width="6" stroke-miterlimit="10" stroke-linejoin="round"/>
<path d="M480.271 175.641C481.23 174.599 480.965 172.766 479.792 172.129C478.47 171.415 477 172.708 477.214 174.387C477.429 176.085 479.197 176.818 480.271 175.641Z" fill="#FFCF2D" stroke="#FE5244" stroke-width="6" stroke-miterlimit="10" stroke-linejoin="round"/>
<path d="M488.582 216.05C489.54 215.008 489.276 213.175 488.103 212.538C486.781 211.824 485.31 213.117 485.525 214.796C485.723 216.513 487.491 217.227 488.582 216.05Z" fill="#FFCF2D" stroke="#FE5244" stroke-width="6" stroke-miterlimit="10" stroke-linejoin="round"/>
<path d="M438.748 134.209C437.856 133.09 436.287 133.399 435.741 134.769C435.13 136.313 436.237 138.03 437.674 137.779C439.145 137.528 439.756 135.464 438.748 134.209Z" fill="#FFCF2D" stroke="#FE5244" stroke-width="6" stroke-miterlimit="10" stroke-linejoin="round"/>
<path d="M441.706 84.1512C440.814 83.032 439.245 83.3407 438.699 84.7109C438.088 86.2547 439.195 87.9721 440.632 87.7213C442.103 87.4704 442.714 85.4056 441.706 84.1512Z" fill="#FFCF2D" stroke="#FE5244" stroke-width="6" stroke-miterlimit="10" stroke-linejoin="round"/>
<path d="M470.256 84.1512C469.364 83.032 467.794 83.3407 467.249 84.7109C466.638 86.2547 467.745 87.9721 469.182 87.7213C470.653 87.4704 471.264 85.4056 470.256 84.1512Z" fill="#FFCF2D" stroke="#FE5244" stroke-width="6" stroke-miterlimit="10" stroke-linejoin="round"/>
<path d="M470.307 105.764C469.101 106.324 468.754 108.138 469.662 109.238C470.67 110.454 472.438 109.894 472.768 108.235C473.099 106.556 471.678 105.128 470.307 105.764Z" fill="#FFCF2D" stroke="#FE5244" stroke-width="6" stroke-miterlimit="10" stroke-linejoin="round"/>
<path d="M454.082 93.4527C452.826 93.8772 452.347 95.6333 453.14 96.8297C454.049 98.1613 455.85 97.7946 456.313 96.1929C456.792 94.5526 455.486 92.9702 454.082 93.4527Z" fill="#FFCF2D" stroke="#FE5244" stroke-width="6" stroke-miterlimit="10" stroke-linejoin="round"/>
<path d="M451.685 146.907C450.397 147.08 449.67 148.74 450.298 150.072C451.008 151.557 452.842 151.538 453.52 150.033C454.213 148.508 453.156 146.714 451.685 146.907Z" fill="#FFCF2D" stroke="#FE5244" stroke-width="6" stroke-miterlimit="10" stroke-linejoin="round"/>
<path d="M437.525 187.104C436.237 187.277 435.51 188.937 436.137 190.268C436.848 191.754 438.682 191.735 439.359 190.23C440.053 188.705 438.996 186.911 437.525 187.104Z" fill="#FFCF2D" stroke="#FE5244" stroke-width="6" stroke-miterlimit="10" stroke-linejoin="round"/>
<path d="M442.283 109.393C441.028 109.817 440.548 111.573 441.341 112.77C442.25 114.101 444.051 113.734 444.514 112.133C444.993 110.512 443.704 108.929 442.283 109.393Z" fill="#FFCF2D" stroke="#FE5244" stroke-width="6" stroke-miterlimit="10" stroke-linejoin="round"/>
<path d="M455.965 120.199C454.709 120.624 454.23 122.38 455.023 123.576C455.932 124.908 457.733 124.541 458.195 122.939C458.675 121.299 457.386 119.717 455.965 120.199Z" fill="#FFCF2D" stroke="#FE5244" stroke-width="6" stroke-miterlimit="10" stroke-linejoin="round"/>
<path d="M426.34 119.736C427.166 118.559 426.72 116.783 425.464 116.339C424.076 115.838 422.755 117.343 423.168 118.964C423.581 120.624 425.398 121.067 426.34 119.736Z" fill="#FFCF2D" stroke="#FE5244" stroke-width="6" stroke-miterlimit="10" stroke-linejoin="round"/>
<path d="M488.978 119.794C489.804 118.617 489.358 116.841 488.102 116.397C486.714 115.896 485.392 117.401 485.805 119.022C486.202 120.681 488.036 121.125 488.978 119.794Z" fill="#FFCF2D" stroke="#FE5244" stroke-width="6" stroke-miterlimit="10" stroke-linejoin="round"/>
<path d="M473.082 198.026C473.908 196.849 473.462 195.073 472.207 194.63C470.819 194.128 469.497 195.633 469.91 197.254C470.306 198.894 472.14 199.338 473.082 198.026Z" fill="#FFCF2D" stroke="#FE5244" stroke-width="6" stroke-miterlimit="10" stroke-linejoin="round"/>
<path d="M459.9 75.8896C459.536 75.9089 459.173 75.9282 458.793 75.9475L442.666 77.1053C438.552 77.3948 434.62 78.6877 431.051 80.8298L426.094 63.5006L448.185 44.589L459.9 75.8896Z" fill="#E57281"/>
<path d="M430.985 80.5621C435.578 78.1306 439.246 73.8079 441.328 68.4432L449.358 47.6983L448.185 44.5721L426.094 63.4837L430.985 80.5621Z" fill="#9A3B82"/>
<path d="M449.606 46.3283C449.606 48.1229 448.979 49.7439 447.971 50.9211C446.963 52.0982 445.575 52.8315 444.038 52.8315H439.181C437.264 61.5347 429.845 67.4977 421.864 65.8574L418.213 65.1048C414.214 64.275 411.488 59.9137 412.05 55.2244L416.329 30.1955C417.073 24.8501 421.782 21.5888 426.16 23.4221L433.249 26.7413C437.082 28.2851 439.66 32.4919 439.66 37.2198V39.632L444.038 39.825C447.111 39.825 449.606 42.7389 449.606 46.3283Z" fill="#E57281"/>
<path d="M441.379 47.5826C441.379 45.0933 443.097 43.0863 445.229 43.0863" stroke="#9A3B82" stroke-width="5" stroke-miterlimit="10" stroke-linecap="round"/>
<path d="M418.709 35.4639C418.709 35.4639 422.179 35.4639 424.657 39.3427" stroke="#9A3B82" stroke-width="5" stroke-miterlimit="10" stroke-linecap="round"/>
<path d="M421.015 42.6864C421.19 41.5644 420.967 40.5776 420.518 40.4823C420.069 40.387 419.564 41.2193 419.389 42.3413C419.215 43.4634 419.437 44.4502 419.886 44.5454C420.335 44.6407 420.84 43.8084 421.015 42.6864Z" fill="#9A3B82"/>
<path d="M444.037 39.825C447.11 39.825 449.605 42.7389 449.605 46.3283C449.605 46.3476 449.605 46.3862 449.605 46.4248C452.084 41.967 458.164 30.6201 458.164 26.7799C458.164 21.6274 452.662 16.475 446.962 18.8293C447.342 18.5012 447.738 18.1539 448.151 17.7872C450.349 15.7803 451.506 14.2751 451.687 13.1944C451.753 12.8085 451.704 12.4611 451.539 12.1909C450.878 11.091 450.151 10.6085 449.374 10.7629C448.234 10.9752 447.061 12.6155 445.888 15.6259C445.359 16.996 444.946 18.3469 444.715 19.1767C444.252 15.954 442.021 5.28242 432.438 6.92271C429.134 7.48234 427.58 9.08403 427.151 10.8401C424.408 8.33143 420.74 6.36308 417.7 8.23494C412.445 11.4576 413.09 16.7452 416.13 20.4889C413.255 20.431 411.239 21.4152 411.239 24.2519C411.239 26.8571 413.536 28.1114 416.692 28.6131C419.848 29.1149 423.896 28.8447 427.399 28.3816C429.894 28.0535 432.141 27.6483 433.578 27.3588C432.62 29.6552 432.24 31.6236 432.323 33.2832C432.471 36.7181 434.603 38.7444 437.61 39.4584C438.254 39.6128 438.948 39.7092 439.659 39.7478L444.037 39.825ZM449.473 11.5348C449.523 11.5155 449.572 11.5155 449.639 11.5155C450.101 11.5155 450.547 11.9015 450.993 12.6348C451.026 12.712 451.076 12.8277 451.043 13.04C450.779 14.6031 447.391 17.575 445.425 19.1381C446.202 16.475 447.838 11.8629 449.473 11.5348Z" fill="#FFCF2D"/>
<path d="M430.852 17.2468C429.712 17.2468 428.555 16.5328 427.713 15.2785C426.771 13.8891 426.457 12.1716 426.853 10.6856C426.903 10.4927 427.068 10.3769 427.233 10.4155C427.3 10.4155 427.366 10.4348 427.415 10.4927C429.91 12.5768 431.91 15.5487 431.612 16.7258C431.546 17.0346 431.331 17.2276 431.05 17.2468C430.984 17.2468 430.918 17.2468 430.852 17.2468ZM427.382 11.419C427.233 12.5382 427.531 13.7733 428.225 14.796C428.968 15.896 429.993 16.5328 430.984 16.4556C431.017 15.9539 429.91 13.6575 427.382 11.419Z" fill="white"/>
<path d="M398.234 187.644H292.488C289.877 187.644 288.307 184.286 289.695 181.72L303.773 155.9C305.607 152.542 308.763 150.516 312.166 150.516H383.744L398.234 187.644Z" fill="#E57281"/>
<path d="M314.496 150.535L322.923 134.325C323.418 133.36 324.327 132.762 325.286 132.762C327.45 132.762 328.772 135.522 327.648 137.683L320.957 150.535H314.496Z" fill="#FE5244"/>
<path d="M398.235 187.644H374.459C374.409 187.586 374.343 187.509 374.293 187.451C368.51 180.504 366.048 169.968 369.303 159.817L372.691 150.516H383.744L398.235 187.644Z" fill="#9A3B82"/>
<path d="M307.424 170.315H294.173C293.28 170.315 292.454 170.875 292.008 171.782L290.604 174.638C289.662 176.567 290.851 178.98 292.768 178.98H303.425C305.276 178.98 306.994 177.86 307.969 176.008L309.109 173.827C309.902 172.283 308.961 170.315 307.424 170.315Z" fill="#E57281"/>
<path d="M304.004 178.98H290.753C289.86 178.98 289.034 179.539 288.588 180.446L287.184 183.302C286.242 185.232 287.432 187.644 289.348 187.644H300.005C301.856 187.644 303.574 186.525 304.549 184.672L305.689 182.492C306.499 180.948 305.541 178.98 304.004 178.98Z" fill="#E57281"/>
<path d="M311.207 161.535H297.956C297.064 161.535 296.237 162.094 295.791 163.001L294.387 165.857C293.445 167.787 294.635 170.199 296.551 170.199H307.209C309.059 170.199 310.777 169.08 311.752 167.227L312.892 165.047C313.702 163.503 312.744 161.535 311.207 161.535Z" fill="#E57281"/>
<path d="M307.424 170.315H294.173C293.28 170.315 292.454 170.875 292.008 171.782L290.604 174.638C289.662 176.567 290.851 178.98 292.768 178.98H303.425C305.276 178.98 306.994 177.86 307.969 176.008L309.109 173.827C309.902 172.283 308.961 170.315 307.424 170.315Z" stroke="#9A3B82" stroke-width="5" stroke-miterlimit="10" stroke-linecap="round"/>
<path d="M304.004 178.98H290.753C289.86 178.98 289.034 179.539 288.588 180.446L287.184 183.302C286.242 185.232 287.432 187.644 289.348 187.644H300.005C301.856 187.644 303.574 186.525 304.549 184.672L305.689 182.492C306.499 180.948 305.541 178.98 304.004 178.98Z" stroke="#9A3B82" stroke-width="5" stroke-miterlimit="10" stroke-linecap="round"/>
<path d="M311.207 161.535H297.956C297.064 161.535 296.237 162.094 295.791 163.001L294.387 165.857C293.445 167.787 294.635 170.199 296.551 170.199H307.209C309.059 170.199 310.777 169.08 311.752 167.227L312.892 165.047C313.702 163.503 312.744 161.535 311.207 161.535Z" stroke="#9A3B82" stroke-width="5" stroke-miterlimit="10" stroke-linecap="round"/>
<path d="M330.391 174.445C326.409 174.445 322.576 172.766 319.569 169.697L314.546 164.564H309.92L308.73 166.05C306.598 168.713 303.971 170.238 300.848 170.238H298.634C297.478 170.238 296.767 168.732 297.395 167.594L302.963 157.405H330.408V174.445H330.391Z" fill="#E57281"/>
<path d="M302.963 157.405L297.395 167.594C296.767 168.732 297.478 170.238 298.634 170.238H300.848C303.971 170.238 306.598 168.732 308.73 166.05L309.92 164.564H314.546L319.569 169.697C322.56 172.746 326.409 174.445 330.391 174.445" stroke="#9A3B82" stroke-width="5" stroke-miterlimit="10" stroke-linecap="round"/>
<path d="M441.954 151.558L416.724 184.479C411.42 191.407 403.836 195.363 395.872 195.363C380.142 195.363 369.253 177.031 374.772 159.817L404.745 77.5711L394.616 70.952C393.179 69.6398 392.485 67.4977 392.799 65.4136L394.517 51.886C395.046 48.8756 397.673 46.5213 400.234 45.8266L412.097 42.7004C413.105 42.4302 414.031 43.4337 413.865 44.6109L412.147 55.0508C411.469 60.1454 414.411 64.5452 418.773 65.4136C422.342 66.1276 424.853 70.3152 424.523 74.5221L416.443 133.38C416.426 133.418 424.704 148.49 441.954 151.558Z" fill="#E57281"/>
<path d="M422.606 88.5128L412.857 162.442" stroke="#9A3B82" stroke-width="5" stroke-miterlimit="10" stroke-linecap="round"/>
<path d="M402.398 52.8701L402.265 57.6559C402.216 59.6243 403.224 61.361 404.678 61.8435L419.862 65.4328" stroke="#9A3B82" stroke-width="5" stroke-miterlimit="10" stroke-linecap="round"/>
<path d="M430.188 66.9766L418.044 65.0854C414.046 64.2556 411.319 59.8944 411.881 55.2051L413.451 44.7265C413.6 43.7424 412.839 42.9126 412.013 43.1441L399.621 46.5212" stroke="#9A3B82" stroke-width="5" stroke-miterlimit="10" stroke-linecap="round"/>
<path d="M423.481 175.602L456.329 132.916" stroke="#FE5244" stroke-width="6" stroke-miterlimit="10"/>
<path d="M405.091 77.5903H410.89" stroke="#9A3B82" stroke-width="5" stroke-miterlimit="10" stroke-linecap="round"/>
<path d="M402.414 54.1438V55.6876C402.414 57.5208 403.554 59.026 404.959 59.026H406.776C407.569 59.026 408.197 58.1962 408.197 57.1542L408.313 47.0809C408.329 45.5178 406.908 44.5529 405.752 44.8809" stroke="#9A3B82" stroke-width="5" stroke-miterlimit="10" stroke-linecap="round"/>
<path d="M408.313 54.1437V55.6875C408.313 57.5207 409.454 59.026 410.858 59.026H412.015" stroke="#9A3B82" stroke-width="5" stroke-miterlimit="10" stroke-linecap="round"/>
<path d="M518.043 297.525L537.226 483.977" stroke="#66B0F0" stroke-width="6" stroke-miterlimit="10"/>
<path d="M434.9 297.525L415.717 483.977" stroke="#66B0F0" stroke-width="6" stroke-miterlimit="10"/>
<path d="M422.292 419.948H530.633" stroke="#66B0F0" stroke-width="6" stroke-miterlimit="10"/>
<path d="M423.845 298.103H528.105C529.493 298.103 530.616 296.791 530.616 295.17V291.195C530.616 289.574 529.493 288.262 528.105 288.262H423.845C422.458 288.262 421.334 289.574 421.334 291.195V295.17C421.334 296.791 422.458 298.103 423.845 298.103Z" fill="white" stroke="#FFCF2D" stroke-width="6" stroke-miterlimit="10"/>
<path d="M355.262 109.161H243.848V33.9199C243.848 28.8253 247.384 24.6957 251.746 24.6957H347.364C351.726 24.6957 355.262 28.8253 355.262 33.9199V109.161Z" fill="white" stroke="#66B0F0" stroke-width="6" stroke-miterlimit="10"/>
<path d="M346.85 104.26H252.719C250.24 104.26 248.225 101.905 248.225 99.0106V34.5182C248.225 31.6236 250.24 29.2693 252.719 29.2693H346.85C349.328 29.2693 351.344 31.6236 351.344 34.5182V99.0299C351.344 101.925 349.328 104.26 346.85 104.26Z" fill="#66B0F0"/>
<path d="M374.791 126.818C379.054 130.06 378.062 136.409 373.023 136.409H221.244C216.997 136.409 215.543 129.713 219.707 126.645L374.791 126.818Z" fill="#66B0F0" stroke="#66B0F0" stroke-width="6" stroke-miterlimit="10"/>
<path d="M373.023 131.99H221.244C218.534 131.99 217.46 128.266 219.707 126.645L243.88 109.161H354.947L374.775 126.818C376.757 128.574 375.601 131.99 373.023 131.99Z" fill="white" stroke="#66B0F0" stroke-width="6" stroke-miterlimit="10"/>
<path d="M355.509 126.722H238.758C236.676 126.722 235.85 123.846 237.568 122.611L254.356 109.161H341.597L356.847 122.746C358.384 124.097 357.492 126.722 355.509 126.722Z" fill="white" stroke="#66B0F0" stroke-width="6" stroke-miterlimit="10"/>
<path d="M334.046 109.161L349.313 126.722" stroke="#66B0F0" stroke-width="6" stroke-miterlimit="10"/>
<path d="M325.95 109.161L339.4 126.722" stroke="#66B0F0" stroke-width="6" stroke-miterlimit="10"/>
<path d="M318.382 109.161L330.047 126.722" stroke="#66B0F0" stroke-width="6" stroke-miterlimit="10"/>
<path d="M309.922 109.161L319.786 126.722" stroke="#66B0F0" stroke-width="6" stroke-miterlimit="10"/>
<path d="M302.899 109.161L307.708 126.722" stroke="#66B0F0" stroke-width="6" stroke-miterlimit="10"/>
<path d="M261.444 109.161L246.177 126.722" stroke="#66B0F0" stroke-width="6" stroke-miterlimit="10"/>
<path d="M269.539 109.161L256.09 126.722" stroke="#66B0F0" stroke-width="6" stroke-miterlimit="10"/>
<path d="M277.107 109.161L265.441 126.722" stroke="#66B0F0" stroke-width="6" stroke-miterlimit="10"/>
<path d="M285.567 109.161L275.703 126.722" stroke="#66B0F0" stroke-width="6" stroke-miterlimit="10"/>
<path d="M292.589 109.161L287.781 126.722" stroke="#66B0F0" stroke-width="6" stroke-miterlimit="10"/>
<path d="M297.349 126.934V109.161" stroke="#66B0F0" stroke-width="6" stroke-miterlimit="10"/>
<path d="M246.177 115.722H348.982" stroke="#66B0F0" stroke-width="6" stroke-miterlimit="10"/>
<path d="M339.019 104.259H255.43L256.933 91.8125C257.859 84.1514 262.568 77.8604 268.929 75.7377L289.302 70.7975H305.147L325.52 75.7377C331.898 77.8411 336.607 84.1514 337.516 91.8125L339.019 104.259Z" fill="#FFCF2D"/>
<path d="M302.866 85.0199L296.835 77.8992C296.703 77.7448 296.703 77.4939 296.835 77.3588C296.968 77.2044 297.182 77.2044 297.298 77.3588L302.833 83.9007L311.425 72.5344C311.541 72.3801 311.756 72.3608 311.888 72.4959C312.02 72.6309 312.037 72.8818 311.921 73.0362L302.866 85.0199Z" fill="white"/>
<path d="M291.665 85.0198L282.61 73.0361C282.495 72.8817 282.495 72.6308 282.643 72.4957C282.776 72.3607 282.99 72.3607 283.106 72.5343L291.698 83.9006L297.233 77.3587C297.365 77.2043 297.564 77.2043 297.696 77.3587C297.828 77.5131 297.828 77.7447 297.696 77.8991L291.665 85.0198Z" fill="white"/>
<path d="M297.364 89.6705C296.571 89.6705 295.927 88.9179 295.927 87.9916C295.927 87.0654 296.571 86.3127 297.364 86.3127C298.157 86.3127 298.802 87.0654 298.802 87.9916C298.802 88.9179 298.157 89.6705 297.364 89.6705ZM297.364 87.0846C296.935 87.0846 296.588 87.4899 296.588 87.9916C296.588 88.4934 296.935 88.8986 297.364 88.8986C297.794 88.8986 298.141 88.4934 298.141 87.9916C298.141 87.4899 297.794 87.0846 297.364 87.0846Z" fill="white"/>
<path d="M297.364 99.1264C296.571 99.1264 295.927 98.3738 295.927 97.4475C295.927 96.5212 296.571 95.7686 297.364 95.7686C298.157 95.7686 298.802 96.5212 298.802 97.4475C298.802 98.3738 298.157 99.1264 297.364 99.1264ZM297.364 96.5405C296.935 96.5405 296.588 96.9457 296.588 97.4475C296.588 97.9492 296.935 98.3545 297.364 98.3545C297.794 98.3545 298.141 97.9492 298.141 97.4475C298.141 96.9457 297.794 96.5405 297.364 96.5405Z" fill="white"/>
<path d="M289.202 103.854H262.204L255 78.8832L281.998 69.8519L289.202 103.854Z" fill="white" stroke="#66B0F0" stroke-width="4" stroke-miterlimit="10"/>
<path d="M263.607 82.125H263.095C261.79 82.125 260.732 80.89 260.732 79.3655V70.7009C260.732 70.0834 261.162 69.5817 261.691 69.5817H263.921C264.45 69.5817 264.88 70.0834 264.88 70.7009V80.6198C264.896 81.4496 264.318 82.125 263.607 82.125Z" fill="white"/>
<path d="M263.607 82.125H263.095C261.79 82.125 260.732 80.89 260.732 79.3655V70.7009C260.732 70.0834 261.162 69.5817 261.691 69.5817H263.921C264.45 69.5817 264.88 70.0834 264.88 70.7009V80.6198C264.896 81.4496 264.318 82.125 263.607 82.125Z" stroke="#66B0F0" stroke-width="4" stroke-miterlimit="10" stroke-linecap="round"/>
<path d="M274.479 82.1251H274.991C276.297 82.1251 277.354 80.89 277.354 79.3655V70.7009C277.354 70.0834 276.925 69.5817 276.396 69.5817H274.149C273.62 69.5817 273.19 70.0834 273.19 70.7009V80.6199C273.19 81.4497 273.769 82.1251 274.479 82.1251Z" fill="white"/>
<path d="M267.755 83.1286H266.565C265.64 83.1286 264.896 82.2603 264.896 81.1796V70.7203C264.896 70.1028 265.326 69.6011 265.855 69.6011H268.085C268.614 69.6011 269.044 70.1028 269.044 70.7203V81.6234C269.044 82.4532 268.465 83.1286 267.755 83.1286Z" fill="white"/>
<path d="M271.919 83.5145H270.928C269.887 83.5145 269.044 82.5303 269.044 81.3146V70.7009C269.044 70.0834 269.474 69.5817 270.002 69.5817H272.233C272.762 69.5817 273.191 70.0834 273.191 70.7009V82.0093C273.191 82.8391 272.613 83.5145 271.919 83.5145Z" fill="white"/>
<path d="M274.479 82.1251H274.991C276.297 82.1251 277.354 80.89 277.354 79.3655V70.7009C277.354 70.0834 276.925 69.5817 276.396 69.5817H274.149C273.62 69.5817 273.19 70.0834 273.19 70.7009V80.6199C273.19 81.4497 273.769 82.1251 274.479 82.1251Z" stroke="#66B0F0" stroke-width="4" stroke-miterlimit="10" stroke-linecap="round"/>
<path d="M267.755 83.1286H266.565C265.64 83.1286 264.896 82.2603 264.896 81.1796V70.7203C264.896 70.1028 265.326 69.6011 265.855 69.6011H268.085C268.614 69.6011 269.044 70.1028 269.044 70.7203V81.6234C269.044 82.4532 268.465 83.1286 267.755 83.1286Z" stroke="#66B0F0" stroke-width="4" stroke-miterlimit="10" stroke-linecap="round"/>
<path d="M271.919 83.5145H270.928C269.887 83.5145 269.044 82.5303 269.044 81.3146V70.7009C269.044 70.0834 269.474 69.5817 270.002 69.5817H272.233C272.762 69.5817 273.191 70.0834 273.191 70.7009V82.0093C273.191 82.8391 272.613 83.5145 271.919 83.5145Z" stroke="#66B0F0" stroke-width="4" stroke-miterlimit="10" stroke-linecap="round"/>
<path d="M305.164 59.4506V73.5378C305.164 75.9693 301.611 77.9569 297.233 77.9569C292.854 77.9569 289.302 75.9693 289.302 73.5378V59.4506H305.164Z" fill="white"/>
<path d="M305.164 59.4506C305.164 70.0835 299.331 73.2483 293.73 72.6887C293.713 72.6887 293.697 72.6887 293.68 72.6887C291.202 72.4185 289.318 69.9484 289.318 67.0538V59.4699H305.164V59.4506Z" fill="#66B0F0"/>
<path d="M308.848 55.8225V56.5366C308.848 58.119 307.757 59.3926 306.402 59.3926H305.146L305.163 59.7207C305.163 64.2749 302.007 67.9607 298.108 67.9607H296.373C292.473 67.9607 289.317 64.2749 289.317 59.7207L289.334 59.3926H288.078C286.723 59.3926 285.633 58.119 285.633 56.5366V55.8225C285.633 54.2401 286.723 52.9665 288.078 52.9665H289.681L289.863 49.4737C289.863 48.9333 289.929 48.4123 290.061 47.9299C294.787 49.3 300.322 45.7492 301.809 44.6879C303.461 45.4212 304.634 47.2737 304.634 49.4544L304.816 52.9472H306.419C307.757 52.9665 308.848 54.2401 308.848 55.8225Z" fill="white"/>
<path d="M306.519 52.9665H304.801L304.619 49.4736C304.619 47.293 303.446 45.4405 301.794 44.7072C300.307 45.7492 294.772 49.3 290.046 47.9491C289.914 48.4316 289.848 48.9526 289.848 49.4929L289.666 52.9858H288.592C288.592 52.9858 286.394 40.5582 288.559 38.2811C290.162 36.6022 304.834 40.2687 306.453 42.8739C307.362 44.3598 306.519 52.9665 306.519 52.9665Z" fill="#E57281"/>
<path d="M302.386 52.2139C302.336 52.2139 302.27 52.1947 302.221 52.1368C302.204 52.1175 301.13 51.0947 299.412 51.0947C299.28 51.0947 299.164 50.9596 299.164 50.8052C299.164 50.6508 299.28 50.5157 299.412 50.5157C301.312 50.5157 302.485 51.635 302.535 51.6929C302.634 51.7894 302.65 51.9824 302.568 52.0982C302.535 52.1754 302.452 52.2139 302.386 52.2139Z" fill="#66B0F0"/>
<path d="M296.108 58.1961C296.075 58.1961 296.042 58.1961 296.025 58.1768C295.893 58.1189 295.827 57.9453 295.876 57.8102C296.339 56.3822 296.223 54.5875 295.579 53.0051C295.199 52.0402 294.654 51.3455 294.175 51.1525C293.117 50.728 291.63 51.3262 291.614 51.3262C291.481 51.3841 291.349 51.3069 291.3 51.1525C291.25 50.9982 291.316 50.8438 291.448 50.7859C291.514 50.7666 293.101 50.1298 294.323 50.6122C294.935 50.8631 295.563 51.6543 296.009 52.7735C296.703 54.491 296.818 56.4593 296.323 58.0417C296.306 58.1189 296.207 58.1961 296.108 58.1961Z" fill="#66B0F0"/>
<path d="M299.363 61.2646C299.38 61.4189 299.264 61.554 299.132 61.5733H299.115C298.983 61.5733 298.884 61.4575 298.868 61.3032C298.851 61.1102 298.818 60.9172 298.768 60.7435C298.058 61.1488 297.414 61.2839 296.885 61.2839C295.844 61.2839 295.216 60.7821 295.183 60.7435C295.067 60.647 295.051 60.4734 295.117 60.3383C295.199 60.2032 295.348 60.1839 295.464 60.2611C295.497 60.2804 296.026 60.7049 296.885 60.7049C297.347 60.7049 297.909 60.5891 298.554 60.2225C298.454 60.0295 298.355 59.9137 298.355 59.9137C298.256 59.7979 298.273 59.605 298.372 59.5085C298.471 59.412 298.636 59.412 298.719 59.5278C298.752 59.5857 299.314 60.319 299.363 61.2646Z" fill="#66B0F0"/>
<path d="M300.254 55.7496C300.482 55.733 300.644 55.2884 300.615 54.7565C300.587 54.2247 300.379 53.8069 300.152 53.8235C299.924 53.8401 299.762 54.2847 299.791 54.8165C299.819 55.3484 300.027 55.7661 300.254 55.7496Z" fill="#66B0F0"/>
<path d="M293.51 55.6722C293.72 55.657 293.868 55.248 293.842 54.7586C293.816 54.2693 293.625 53.885 293.416 53.9002C293.206 53.9155 293.057 54.3245 293.083 54.8139C293.11 55.3032 293.301 55.6875 293.51 55.6722Z" fill="#66B0F0"/>
<path d="M288.887 56.7488C288.755 56.7488 288.639 56.6138 288.639 56.4594C288.639 55.6103 288.044 54.9349 287.334 54.9349C287.202 54.9349 287.086 54.7998 287.086 54.6454C287.086 54.491 287.202 54.356 287.334 54.356C288.325 54.356 289.135 55.3015 289.135 56.4594C289.135 56.6331 289.019 56.7488 288.887 56.7488Z" fill="#66B0F0"/>
<path d="M305.509 56.7488C305.376 56.7488 305.261 56.6137 305.261 56.4593C305.261 55.3014 306.07 54.3558 307.062 54.3558C307.194 54.3558 307.31 54.4909 307.31 54.6453C307.31 54.7997 307.194 54.9348 307.062 54.9348C306.335 54.9348 305.756 55.6295 305.756 56.4593C305.756 56.633 305.657 56.7488 305.509 56.7488Z" fill="#66B0F0"/>
<path d="M193.983 297.525L213.167 483.977" stroke="#66B0F0" stroke-width="6" stroke-miterlimit="10"/>
<path d="M110.823 297.525L91.6562 483.977" stroke="#66B0F0" stroke-width="6" stroke-miterlimit="10"/>
<path d="M98.2334 419.948H206.574" stroke="#66B0F0" stroke-width="6" stroke-miterlimit="10"/>
<path d="M94.1501 297.525H210.653C212.041 297.525 213.165 296.212 213.165 294.591V290.616C213.165 288.995 212.041 287.683 210.653 287.683H94.1501C92.7622 287.683 91.6387 288.995 91.6387 290.616V294.591C91.6552 296.212 92.7787 297.525 94.1501 297.525Z" fill="white" stroke="#FFCF2D" stroke-width="6" stroke-miterlimit="10"/>
<path d="M268.499 329.172C268.499 334.325 256.255 338.493 240.922 338.493C225.589 338.493 213.709 334.325 213.709 329.172C213.709 324.02 225.589 319.852 240.922 319.852C256.255 319.852 268.499 324.039 268.499 329.172Z" fill="#FE5244"/>
<path d="M261.443 322.901V389.477L259.708 379.867C257.841 369.524 250.026 362.133 240.971 362.133C238.245 362.133 235.568 362.808 233.139 364.082C233.057 364.12 232.974 364.178 232.875 364.217L226.513 337.123L222.978 322.052C227.819 320.682 234.081 319.852 240.921 319.852C249.051 319.852 256.37 321.029 261.443 322.901Z" fill="#A0505A"/>
<path d="M261.443 322.901V335.444C256.37 337.316 249.051 338.493 240.921 338.493C235.651 338.493 230.727 337.991 226.513 337.142L222.978 322.071C227.819 320.701 234.081 319.871 240.921 319.871C249.051 319.852 256.37 321.029 261.443 322.901Z" fill="#73325A"/>
<path d="M260.22 387.528C260.666 387.683 264.863 389.053 268.581 389.053C270.597 389.053 272.464 388.648 273.521 387.413C274.43 386.351 274.645 384.807 274.166 382.858C273.736 381.122 272.91 380.041 271.704 379.655C269.49 378.96 266.416 380.89 263.987 382.916C267.771 377.551 271.505 370.739 270.117 366.282C269.622 364.699 268.498 363.638 267.094 363.445C265.921 363.291 264.83 363.773 264.318 364.68C261.939 368.906 259.989 386.255 259.906 386.988L260.22 387.528ZM265.012 365.22C265.309 364.699 265.937 364.391 266.664 364.391C266.78 364.391 266.895 364.391 267.011 364.41C267.54 364.487 268.812 364.834 269.357 366.61C269.721 367.787 269.853 369.948 268.383 373.576C266.995 377.011 264.483 381.044 260.914 385.618C261.443 381.218 263.128 368.559 265.012 365.22ZM272.943 386.737C271.852 388.011 269.374 388.397 265.755 387.856C263.855 387.567 262.087 387.104 261.145 386.814C261.856 386.081 263.178 384.749 264.714 383.514C267.655 381.141 270.002 380.118 271.505 380.601C272.414 380.89 273.025 381.72 273.389 383.128C273.786 384.749 273.637 385.927 272.943 386.737Z" fill="#FFCF2D"/>
<path d="M226.68 369.62L222.863 374.618C218.534 380.292 217.824 388.551 221.112 395.112L237.916 428.767C241.204 435.348 247.234 439.381 253.744 439.381H260.701C265.74 439.381 269.491 433.978 268.45 428.227L259.693 379.887C257.826 369.543 250.01 362.152 240.956 362.152C235.52 362.133 230.315 364.854 226.68 369.62Z" fill="white" stroke="#3FB1B5" stroke-width="5" stroke-miterlimit="10"/>
<path d="M239.685 384.171L261.379 433.264C262.404 435.483 263.676 436.911 265.13 437.818C263.874 438.802 262.354 439.4 260.702 439.4H253.746C247.219 439.4 241.188 435.348 237.917 428.786L221.113 395.112C220.436 393.742 219.923 392.314 219.576 390.828C217.197 380.504 227.259 372.399 234.81 378.458C236.529 379.829 238.214 381.681 239.685 384.171Z" fill="#3FB1B5"/>
<path d="M239.733 384.286H219.707C219.806 383.92 219.922 383.572 220.054 383.244H239.088C239.287 383.553 239.485 383.862 239.683 384.19L239.733 384.286Z" fill="white"/>
<path d="M242.674 390.925H219.608C219.608 390.886 219.592 390.848 219.592 390.828C219.526 390.52 219.46 390.191 219.41 389.883H242.228L242.674 390.925Z" fill="white"/>
<path d="M245.614 397.582H222.35L221.821 396.521H245.152L245.614 397.582Z" fill="white"/>
<path d="M248.556 404.24H225.671L225.143 403.179H248.093L248.556 404.24Z" fill="white"/>
<path d="M251.497 410.878H228.993L228.464 409.836H251.034L251.497 410.878Z" fill="white"/>
<path d="M254.438 417.536H232.314L231.785 416.475H253.959L254.438 417.536Z" fill="white"/>
<path d="M257.379 424.194H235.635L235.106 423.132H256.9L257.379 424.194Z" fill="white"/>
<path d="M260.303 430.832H239.088C238.873 430.485 238.658 430.137 238.46 429.79H259.841L260.303 430.832Z" fill="white"/>
<path d="M264.648 437.49H246.209C245.614 437.181 245.035 436.833 244.474 436.448H263.458C263.839 436.833 264.235 437.181 264.648 437.49Z" fill="white"/>
<path d="M200.822 327.802C200.673 332.897 188.297 337.027 173.063 337.027C157.829 337.027 145.453 332.916 145.305 327.802V287.683H200.822V327.802Z" fill="#73325A"/>
<path d="M197.137 334.46L197.055 339.227L196.261 385.753V384.402C196.261 372.457 187.967 362.77 177.739 362.77H176.616C171.394 362.77 166.685 365.143 163.199 368.964L160.77 349.782L159.267 337.914C163.331 338.706 168.04 339.149 173.047 339.149C183.357 339.13 192.329 337.239 197.137 334.46Z" fill="#A0505A"/>
<path d="M197.138 334.46L197.056 339.227C190.909 344.321 171.924 350.593 160.788 349.763L159.284 337.895C163.349 338.667 168.058 339.13 173.064 339.13C183.358 339.13 192.33 337.239 197.138 334.46Z" fill="#73325A"/>
<path d="M178.581 440.018H181.654C189.718 440.018 196.261 432.376 196.261 422.959V384.402C196.261 372.457 187.966 362.77 177.739 362.77H176.615C164.719 362.77 155.548 375.024 157.151 388.802L161.034 422.148C162.24 432.376 169.725 440.018 178.581 440.018Z" fill="white" stroke="#3FB1B5" stroke-width="5" stroke-miterlimit="10"/>
<path d="M191.668 435.367C189.057 438.242 185.522 440.017 181.655 440.017H178.582C169.726 440.017 162.241 432.376 161.051 422.148L157.168 388.802C157.102 388.165 157.036 387.528 157.02 386.911C158.011 379.52 163.48 373.865 170.089 373.865C173.344 373.865 176.351 375.255 178.681 377.571C181.011 379.886 182.647 383.148 183.159 386.911L188.264 427.609C188.644 430.639 189.867 433.341 191.668 435.367Z" fill="#3FB1B5"/>
<path d="M181.622 381.758H158.539C158.704 381.392 158.903 381.044 159.101 380.716H181.076C181.275 381.044 181.456 381.392 181.622 381.758Z" fill="white"/>
<path d="M183.34 388.397H157.118C157.085 388.049 157.052 387.702 157.035 387.355H183.207L183.34 388.397Z" fill="white"/>
<path d="M184.182 395.054H157.894L157.762 394.012H184.05L184.182 395.054Z" fill="white"/>
<path d="M185.009 401.712H158.671L158.539 400.651H184.877L185.009 401.712Z" fill="white"/>
<path d="M185.851 408.35H159.448L159.315 407.308H185.719L185.851 408.35Z" fill="white"/>
<path d="M186.677 415.008H160.207L160.092 413.966H186.545L186.677 415.008Z" fill="white"/>
<path d="M187.52 421.666H160.984L160.868 420.604H187.387L187.52 421.666Z" fill="white"/>
<path d="M188.362 428.304H162.619C162.471 427.957 162.338 427.609 162.223 427.262H188.213L188.263 427.609C188.296 427.841 188.329 428.072 188.362 428.304Z" fill="white"/>
<path d="M191.32 434.962H166.982C166.651 434.634 166.321 434.267 166.023 433.92H190.56C190.791 434.286 191.056 434.634 191.32 434.962Z" fill="white"/>
<path d="M212.834 119.273V151.77C211.628 148.084 202.077 148.605 191.569 153.256C182.564 157.251 175.806 162.731 174.814 166.533V120.797C174.814 107.193 181.044 95.0352 190.61 88.3969C203.036 90.9248 212.834 103.565 212.834 119.273Z" fill="#FFCF2D"/>
<path d="M174.087 89.8635C165.627 96.7335 160.241 108.138 160.241 120.797V158.524H113.2L119.694 125.873C122.453 111.959 131.078 100.863 142.314 96.1352L174.087 89.8635Z" fill="#FFCF2D"/>
<path d="M269.227 251.345V327.088C269.227 321.936 256.256 317.768 240.923 317.768C225.59 317.768 213.165 321.936 213.165 327.088V290.79C213.165 289.091 211.975 287.702 210.521 287.702H126.188C100.825 287.702 82.0717 260.126 87.8051 231.276L108.161 128.845C111.4 112.5 122.735 100.053 136.895 97.2353L142.314 96.1546C131.079 100.882 122.454 111.979 119.694 125.892L113.201 158.544H160.242V120.798C160.242 108.138 165.645 96.7142 174.088 89.8636L181.523 88.397C183.06 88.0882 184.563 87.9531 186.067 87.9531C186.265 87.9531 186.447 87.9531 186.645 87.9531C186.827 87.9531 187.009 87.9724 187.174 87.9724C187.207 87.9724 187.24 87.9724 187.273 87.9724C187.405 87.9724 187.554 87.9917 187.686 87.9917C187.703 87.9917 187.736 87.9917 187.752 87.9917C187.835 87.9917 187.918 88.011 187.984 88.011C188.132 88.0303 188.264 88.0303 188.413 88.0496C188.578 88.0689 188.76 88.0882 188.925 88.1075C189.091 88.1268 189.239 88.1461 189.405 88.1654C189.438 88.1654 189.471 88.1847 189.52 88.1847C189.685 88.204 189.867 88.2426 190.032 88.2619C190.049 88.2619 190.065 88.2619 190.065 88.2619C190.247 88.3005 190.429 88.3198 190.611 88.3584C181.044 94.9967 174.815 107.154 174.815 120.759V213.484H236.842C254.72 213.522 269.227 230.446 269.227 251.345Z" fill="#FE5244"/>
<path d="M175.161 89.0144C166.701 95.8843 160.224 108.138 160.224 120.797V158.524H113.184L119.677 125.873C122.436 111.959 130.334 100.651 141.586 95.9229" stroke="white" stroke-width="6" stroke-miterlimit="10" stroke-linecap="round"/>
<path d="M213.164 279.153C213.164 268.404 216.419 258.003 222.351 249.802" stroke="white" stroke-width="6" stroke-miterlimit="10" stroke-linecap="round"/>
<path d="M144.446 275.313C144.363 275.313 144.281 275.294 144.215 275.236L142.034 273.846C141.786 273.692 141.703 273.345 141.835 273.055C141.968 272.766 142.265 272.669 142.513 272.824L144.694 274.213C144.942 274.367 145.024 274.715 144.892 275.004C144.793 275.197 144.628 275.313 144.446 275.313ZM146.627 274.657C146.445 274.657 146.28 274.541 146.197 274.348C146.065 274.059 146.148 273.711 146.396 273.557L148.577 272.167C148.825 272.013 149.122 272.129 149.254 272.399C149.386 272.688 149.304 273.036 149.056 273.19L146.875 274.58C146.792 274.618 146.71 274.657 146.627 274.657ZM140.084 272.553C140.001 272.553 139.919 272.534 139.853 272.476L137.672 271.087C137.424 270.932 137.341 270.585 137.473 270.296C137.606 270.006 137.903 269.91 138.151 270.064L140.332 271.453C140.58 271.608 140.662 271.955 140.53 272.245C140.431 272.438 140.266 272.553 140.084 272.553ZM150.973 271.878C150.791 271.878 150.626 271.762 150.543 271.569C150.411 271.28 150.493 270.932 150.741 270.778L152.922 269.389C153.302 269.157 153.649 268.887 153.996 268.597C154.211 268.404 154.525 268.462 154.69 268.713C154.855 268.964 154.806 269.331 154.591 269.524C154.211 269.852 153.814 270.141 153.401 270.411L151.22 271.801C151.138 271.859 151.055 271.878 150.973 271.878ZM135.772 269.697C135.672 269.697 135.573 269.659 135.474 269.582C134.78 268.983 134.136 268.289 133.59 267.497C133.409 267.247 133.442 266.88 133.657 266.687C133.871 266.475 134.185 266.513 134.351 266.764C134.846 267.478 135.425 268.096 136.052 268.636C136.267 268.829 136.317 269.196 136.168 269.447C136.085 269.62 135.937 269.697 135.772 269.697ZM156.078 267.671C155.962 267.671 155.863 267.633 155.764 267.536C155.549 267.343 155.516 266.976 155.698 266.726C156.194 266.012 156.607 265.24 156.937 264.391C157.053 264.101 157.35 263.966 157.598 264.101C157.846 264.236 157.962 264.584 157.846 264.873C157.483 265.799 157.02 266.668 156.475 267.44C156.359 267.594 156.227 267.671 156.078 267.671ZM132.665 265.278C132.483 265.278 132.302 265.162 132.219 264.95C131.856 264.024 131.591 263.059 131.426 262.056C131.376 261.747 131.558 261.438 131.823 261.38C132.087 261.322 132.351 261.535 132.401 261.843C132.55 262.75 132.781 263.619 133.111 264.448C133.227 264.738 133.111 265.085 132.863 265.22C132.797 265.259 132.731 265.278 132.665 265.278ZM158.127 262.461C158.094 262.461 158.061 262.461 158.044 262.461C157.78 262.403 157.598 262.094 157.648 261.785C157.747 261.149 157.797 260.512 157.797 259.875V259.007C157.797 258.678 158.011 258.428 158.292 258.428C158.573 258.428 158.788 258.678 158.788 259.007V259.875C158.788 260.589 158.738 261.303 158.623 261.998C158.573 262.268 158.358 262.461 158.127 262.461ZM131.756 259.643C131.476 259.643 131.261 259.392 131.261 259.064V256.17C131.261 255.842 131.476 255.591 131.756 255.591C132.037 255.591 132.252 255.842 132.252 256.17V259.064C132.252 259.373 132.021 259.643 131.756 259.643ZM158.276 256.691C157.995 256.691 157.78 256.44 157.78 256.112V253.217C157.78 252.889 157.995 252.638 158.276 252.638C158.557 252.638 158.771 252.889 158.771 253.217V256.112C158.771 256.44 158.557 256.691 158.276 256.691ZM131.756 253.854C131.476 253.854 131.261 253.603 131.261 253.275V250.381C131.261 250.052 131.476 249.802 131.756 249.802C132.037 249.802 132.252 250.052 132.252 250.381V253.275C132.252 253.584 132.021 253.854 131.756 253.854ZM158.276 250.902C157.995 250.902 157.78 250.651 157.78 250.323V247.428C157.78 247.1 157.995 246.849 158.276 246.849C158.557 246.849 158.771 247.1 158.771 247.428V250.323C158.771 250.651 158.557 250.902 158.276 250.902ZM131.756 248.065C131.476 248.065 131.261 247.814 131.261 247.486V244.591C131.261 244.263 131.476 244.012 131.756 244.012C132.037 244.012 132.252 244.263 132.252 244.591V247.486C132.252 247.795 132.021 248.065 131.756 248.065ZM158.276 245.112C157.995 245.112 157.78 244.861 157.78 244.533V241.639C157.78 241.311 157.995 241.06 158.276 241.06C158.557 241.06 158.771 241.311 158.771 241.639V244.533C158.771 244.861 158.557 245.112 158.276 245.112ZM131.756 242.276C131.476 242.276 131.261 242.025 131.261 241.697V239.207H132.599C132.88 239.207 133.095 239.458 133.095 239.786C133.095 240.114 132.88 240.365 132.599 240.365H132.252V241.697C132.252 242.005 132.021 242.276 131.756 242.276ZM157.383 240.365H154.905C154.624 240.365 154.409 240.114 154.409 239.786C154.409 239.458 154.624 239.207 154.905 239.207H157.383C157.664 239.207 157.879 239.458 157.879 239.786C157.879 240.114 157.664 240.365 157.383 240.365ZM152.427 240.365H149.948C149.667 240.365 149.452 240.114 149.452 239.786C149.452 239.458 149.667 239.207 149.948 239.207H152.427C152.707 239.207 152.922 239.458 152.922 239.786C152.922 240.114 152.707 240.365 152.427 240.365ZM147.47 240.365H144.991C144.71 240.365 144.496 240.114 144.496 239.786C144.496 239.458 144.71 239.207 144.991 239.207H147.47C147.751 239.207 147.965 239.458 147.965 239.786C147.965 240.114 147.751 240.365 147.47 240.365ZM142.513 240.365H140.034C139.754 240.365 139.539 240.114 139.539 239.786C139.539 239.458 139.754 239.207 140.034 239.207H142.513C142.794 239.207 143.009 239.458 143.009 239.786C143.009 240.114 142.794 240.365 142.513 240.365ZM137.556 240.365H135.078C134.797 240.365 134.582 240.114 134.582 239.786C134.582 239.458 134.797 239.207 135.078 239.207H137.556C137.837 239.207 138.052 239.458 138.052 239.786C138.052 240.114 137.837 240.365 137.556 240.365Z" fill="white"/>
<path d="M97.6865 272.11C97.5047 272.11 97.3395 271.994 97.2569 271.801C97.1247 271.511 97.2073 271.164 97.4551 271.01L99.4709 269.717C99.5205 269.678 99.5701 269.659 99.6196 269.62C99.851 269.466 100.165 269.562 100.297 269.832C100.429 270.103 100.347 270.469 100.115 270.624C100.066 270.662 100.016 270.701 99.9501 270.72L97.9343 272.013C97.8517 272.09 97.7691 272.11 97.6865 272.11ZM101.867 269.022C101.735 269.022 101.602 268.964 101.503 268.829C101.322 268.597 101.338 268.231 101.536 268.019C102.115 267.401 102.627 266.687 103.073 265.934C103.222 265.664 103.536 265.606 103.767 265.78C103.998 265.954 104.048 266.32 103.899 266.59C103.42 267.42 102.842 268.192 102.214 268.887C102.098 268.983 101.982 269.022 101.867 269.022ZM104.626 264.275C104.56 264.275 104.51 264.256 104.444 264.236C104.197 264.12 104.064 263.792 104.163 263.484C104.444 262.615 104.643 261.728 104.758 260.821C104.791 260.512 105.039 260.28 105.32 260.319C105.584 260.357 105.783 260.647 105.75 260.975C105.634 261.978 105.419 262.963 105.105 263.908C105.006 264.14 104.824 264.275 104.626 264.275ZM105.337 258.601C105.056 258.601 104.841 258.35 104.841 258.022V255.128C104.841 254.8 105.056 254.549 105.337 254.549C105.617 254.549 105.832 254.8 105.832 255.128V258.022C105.832 258.331 105.617 258.601 105.337 258.601ZM105.337 252.812C105.056 252.812 104.841 252.561 104.841 252.233V249.338C104.841 249.01 105.056 248.76 105.337 248.76C105.617 248.76 105.832 249.01 105.832 249.338V252.233C105.832 252.542 105.617 252.812 105.337 252.812ZM105.337 247.023C105.056 247.023 104.841 246.772 104.841 246.444V243.549C104.841 243.221 105.056 242.97 105.337 242.97C105.617 242.97 105.832 243.221 105.832 243.549V246.444C105.832 246.753 105.617 247.023 105.337 247.023ZM105.337 241.234C105.056 241.234 104.841 240.983 104.841 240.655V240.365H103.602C103.321 240.365 103.106 240.114 103.106 239.786C103.106 239.458 103.321 239.207 103.602 239.207H105.832V240.655C105.832 240.963 105.617 241.234 105.337 241.234ZM101.123 240.365H98.6448C98.3639 240.365 98.1491 240.114 98.1491 239.786C98.1491 239.458 98.3639 239.207 98.6448 239.207H101.123C101.404 239.207 101.619 239.458 101.619 239.786C101.619 240.114 101.388 240.365 101.123 240.365ZM96.1664 240.365H93.6879C93.407 240.365 93.1922 240.114 93.1922 239.786C93.1922 239.458 93.407 239.207 93.6879 239.207H96.1664C96.4472 239.207 96.662 239.458 96.662 239.786C96.662 240.114 96.4307 240.365 96.1664 240.365ZM91.2095 240.365H88.731C88.4501 240.365 88.2354 240.114 88.2354 239.786C88.2354 239.458 88.4501 239.207 88.731 239.207H91.2095C91.4904 239.207 91.7052 239.458 91.7052 239.786C91.7052 240.114 91.4738 240.365 91.2095 240.365Z" fill="white"/>
<path d="M212.834 151.769C214.04 155.455 206.406 161.997 195.914 166.647C185.422 171.298 176.021 172.012 174.815 168.307C173.608 164.602 181.06 157.925 191.569 153.274C202.077 148.623 211.628 148.064 212.834 151.769Z" fill="#FE5244"/>
<path d="M218.699 271.492V273.538C218.154 273.383 217.576 273.306 216.997 273.306H214.866C211.71 273.306 209.017 270.952 207.992 267.671L214.04 266.726C216.502 266.34 218.699 268.578 218.699 271.492Z" fill="#73325A"/>
<path d="M224.285 281.815V297.523C224.285 301.19 221.74 304.161 218.601 304.161H212.273C210.703 304.161 209.282 303.428 208.258 302.212C207.233 301.016 206.589 299.356 206.589 297.523H210.703C212.058 297.523 213.149 296.249 213.149 294.667V290.557C213.149 288.974 212.058 287.701 210.703 287.701H189.669C181.458 287.701 174.799 279.924 174.799 270.333V166.551C175.79 162.749 182.548 157.249 191.553 153.274C197.7 150.553 203.532 149.241 207.547 149.357V264.794C207.547 269.503 210.819 273.324 214.85 273.324H216.982C221.013 273.305 224.285 277.106 224.285 281.815Z" fill="#A0505A"/>
<path d="M207.547 149.339V159.837C204.557 162.191 200.508 164.603 195.899 166.629C185.39 171.28 176.005 171.994 174.799 168.289V166.533C175.79 162.731 182.548 157.231 191.553 153.256C197.716 150.535 203.532 149.223 207.547 149.339Z" fill="#73325A"/>
<path d="M180.07 71.1643L173.857 89.8636L141.836 96.5599L150.197 71.1643H180.07Z" fill="#A0505A"/>
<path d="M180.07 71.1643L176.716 81.2762L144.959 87.0655L150.197 71.1643H180.07Z" fill="#73325A"/>
<path d="M198.839 33.1095C198.839 35.6375 195.088 38.4357 190.759 40.79C184.861 44.0127 177.905 46.4634 177.905 46.4634L173.212 56.7876C179.59 60.7436 182.085 67.8451 183.076 72.8046C183.704 75.9694 183.704 78.2272 183.704 78.2272H138.729C138.729 78.2272 126.915 33.5341 155.384 22.8433C172.799 16.3014 198.839 27.108 198.839 33.1095Z" fill="white" stroke="#FFCF2D" stroke-width="6" stroke-miterlimit="10" stroke-linecap="round"/>
<path d="M151.22 29.2114C157.398 29.2114 162.406 23.3622 162.406 16.147C162.406 8.93167 157.398 3.08252 151.22 3.08252C145.042 3.08252 140.034 8.93167 140.034 16.147C140.034 23.3622 145.042 29.2114 151.22 29.2114Z" fill="white" stroke="#FFCF2D" stroke-width="6" stroke-miterlimit="10" stroke-linecap="round"/>
<path d="M183.06 72.802C182.135 68.1127 179.821 61.4358 174.121 57.4026H172.65C171.295 57.4026 170.056 56.7658 169.164 55.7237C168.272 54.6816 167.727 53.2343 167.727 51.6519C167.727 48.4678 169.924 45.9012 172.65 45.9012L178.88 46.0556H179.045C179.16 46.017 179.276 45.9591 179.408 45.9205C181.094 45.496 186.43 43.9908 190.859 41.4049L191.371 44.975L193.023 56.4184C194.147 64.2725 189.537 71.5091 183.06 72.802Z" fill="#A0505A"/>
<path d="M191.355 44.9582C185.935 47.5248 178.863 46.0389 178.863 46.0389C178.863 46.0389 185.522 44.4951 190.842 41.3882L191.355 44.9582Z" fill="#73325A"/>
<path d="M176.484 52.7545C176.484 50.5546 174.964 48.7792 173.08 48.7792" stroke="#73325A" stroke-width="5" stroke-miterlimit="10" stroke-linecap="round"/>
</svg>
