<svg width="430" height="475" viewBox="0 0 430 475" fill="none" xmlns="http://www.w3.org/2000/svg">
<path d="M403.777 97.8302C444.037 155.395 431.182 241.685 402.941 312.109C374.817 382.438 331.432 436.852 274.585 460.222C217.862 483.587 147.795 475.873 94.1975 447.592C40.4762 419.301 3.21817 370.472 0.216087 323.956C-2.9093 277.585 28.3392 233.637 63.4314 177.189C98.5237 120.741 137.701 51.7733 203.924 31.6543C270.259 11.5353 363.517 40.39 403.777 97.8302Z" fill="#F2F2F2"/>
<path fill-rule="evenodd" clip-rule="evenodd" d="M186.694 99.4408L185.085 91.8868C184.631 89.7747 183.294 87.9165 181.369 86.7199C179.443 85.5234 177.086 85.0863 174.814 85.5045L142.472 91.4879C140.201 91.9104 138.203 93.1536 136.917 94.9447C135.63 96.7358 135.16 98.9283 135.61 101.041L159.198 211.17C159.421 212.216 159.864 213.212 160.502 214.099C161.139 214.986 161.958 215.747 162.912 216.34C163.866 216.933 164.936 217.345 166.061 217.553C167.186 217.761 168.344 217.761 169.469 217.552L190.784 213.603C193.609 212.93 197.324 211.913 197.324 211.913L186.694 99.4408Z" fill="#6BD5E1"/>
<path fill-rule="evenodd" clip-rule="evenodd" d="M273.813 448.933L276.413 456.522L298.12 451.885L296.281 442.805L273.813 448.933Z" fill="#E49D75"/>
<path fill-rule="evenodd" clip-rule="evenodd" d="M138.698 382.892L130.737 386.427L141.491 404.228L150.841 398.564L138.698 382.892Z" fill="#E49D75"/>
<path fill-rule="evenodd" clip-rule="evenodd" d="M187.943 196.481C187.943 196.481 209.757 303.229 216.056 317.644C207.698 323.956 138.27 383.027 138.27 383.027L150.063 399.112L250.58 345.586L229.914 185.606L187.943 196.481Z" fill="#56CAD8"/>
<path fill-rule="evenodd" clip-rule="evenodd" d="M202.069 200.51C207.194 212.411 273.754 449.098 273.754 449.098L297.047 443.384L276.569 182.894C276.569 182.894 196.949 188.608 202.069 200.51Z" fill="#6BD5E1"/>
<path fill-rule="evenodd" clip-rule="evenodd" d="M213.933 78.5639C265.365 68.1379 283.592 170.987 280.108 183.801C276.623 196.615 195.304 209.23 189.343 201.472C183.382 193.713 159.547 89.5882 213.933 78.5639Z" fill="#FFD98E"/>
<path fill-rule="evenodd" clip-rule="evenodd" d="M200.07 52.8155C203.458 60.9379 204.739 73.124 205.565 84.8863C210.111 88.5661 223.561 87.3395 225.443 85.1655C223.937 81.4558 224.312 69.9728 225.143 66.4027C225.974 62.8326 198.178 48.2831 200.07 52.8155Z" fill="#D18C65"/>
<path fill-rule="evenodd" clip-rule="evenodd" d="M283.323 69.6636L299.626 11.3508L306.916 13.1109L290.614 71.4486L283.323 69.6636Z" fill="#DFDFDF"/>
<path d="M287.757 64.1689L291.933 65.1662" stroke="white" stroke-width="1.01" stroke-linecap="square" stroke-linejoin="round"/>
<path d="M289.901 56.5002L294.078 57.4974" stroke="white" stroke-width="1.01" stroke-linecap="square" stroke-linejoin="round"/>
<path d="M292.04 48.8315L296.222 49.8287" stroke="white" stroke-width="1.01" stroke-linecap="square" stroke-linejoin="round"/>
<path d="M294.185 41.1628L298.366 42.1601" stroke="white" stroke-width="1.01" stroke-linecap="square" stroke-linejoin="round"/>
<path d="M296.329 33.4943L300.505 34.4915" stroke="white" stroke-width="1.01" stroke-linecap="square" stroke-linejoin="round"/>
<path d="M298.474 25.8256L302.65 26.8228" stroke="white" stroke-width="1.01" stroke-linecap="square" stroke-linejoin="round"/>
<path d="M300.618 18.157L304.794 19.1542" stroke="white" stroke-width="1.01" stroke-linecap="square" stroke-linejoin="round"/>
<path fill-rule="evenodd" clip-rule="evenodd" d="M307.678 47.5501C312.031 46.124 314.99 49.8686 316.18 53.1993C318.089 58.5544 316.824 63.4408 314.99 64.1688C313.971 64.5903 312.829 64.6792 311.749 64.4213C310.669 64.1634 309.714 63.5736 309.04 62.7478C308.911 64.2087 308.686 65.4253 305.823 66.5821C301.534 68.3123 296.795 63.0918 295.675 60.3993C294.185 56.8592 294.887 51.5739 298.087 50.2974C300.725 49.2454 302.526 50.0032 303.357 50.9706C304.531 49.2503 305.85 48.1484 307.678 47.5501Z" fill="#56CAD8"/>
<path fill-rule="evenodd" clip-rule="evenodd" d="M304.906 36.7801C311.205 37.2787 306.471 46.548 303.501 48.5225C301.4 46.8721 298.811 36.2965 304.906 36.7801Z" fill="#FD8369"/>
<path fill-rule="evenodd" clip-rule="evenodd" d="M191.261 146.186C190.811 154.996 188.286 178.62 207.296 182.709C225.378 186.603 284.814 149.128 295.487 146.894C306.161 144.66 306.338 148.19 314.084 145.488C329.357 140.153 326.414 134.299 325.208 128.291C318.743 130.245 226.809 151.227 223.705 151.985C222.381 149.249 221.664 146.293 221.598 143.294C221.598 143.294 191.711 137.375 191.261 146.186Z" fill="#E49D75"/>
<path fill-rule="evenodd" clip-rule="evenodd" d="M202.76 97.4812C228.364 96.3244 230.208 145.188 226.445 148.395C222.681 151.601 187.096 153.939 184.415 150.294C181.735 146.649 180.175 98.5033 202.76 97.4812Z" fill="#FFE4AD"/>
<path fill-rule="evenodd" clip-rule="evenodd" d="M257.527 126.117C251.469 127.533 247.593 132.499 248.869 137.206C250.145 141.913 256.085 144.6 262.148 143.159L328.183 127.702L323.573 110.66L257.527 126.117Z" fill="#FD8369"/>
<path fill-rule="evenodd" clip-rule="evenodd" d="M256.605 113.891L350.099 91.9067L353.315 103.764L259.822 125.743L256.605 113.891Z" fill="#DFDFDF"/>
<path fill-rule="evenodd" clip-rule="evenodd" d="M254.22 93.5821L321.89 77.6714L327.283 97.5112L259.607 113.422L254.22 93.5821Z" fill="#56CAD8"/>
<path fill-rule="evenodd" clip-rule="evenodd" d="M231.36 86.4021L324.87 64.4182L328.086 76.2902L234.593 98.269L231.36 86.4021Z" fill="#FD8369"/>
<path d="M259.028 127.852L262.379 140.417" stroke="#6BD5E1" stroke-width="1.36" stroke-linecap="square" stroke-linejoin="round"/>
<path fill-rule="evenodd" clip-rule="evenodd" d="M261.467 99.4307L280.562 94.9432L282.085 100.543L262.989 105.03L261.467 99.4307Z" fill="#DFDFDF"/>
<path d="M238.077 91.0391L276.622 81.8596" stroke="#FFD98E" stroke-width="2.42" stroke-linecap="round" stroke-linejoin="round"/>
<path fill-rule="evenodd" clip-rule="evenodd" d="M113.363 394.56L143.995 447.308L152.632 443.07L143.009 404.178L130.808 386.268L113.363 394.56Z" fill="#2B2B2B"/>
<path fill-rule="evenodd" clip-rule="evenodd" d="M279.11 474.004L342.572 463.533L340.964 454.558L298.227 450.823L276.124 455.974L279.11 474.004Z" fill="#2B2B2B"/>
<path fill-rule="evenodd" clip-rule="evenodd" d="M237.536 15.7386C235.118 3.4927 222.177 -1.77265 210.742 0.525956C190.859 4.51486 181.257 14.4871 169.383 16.3469C151.371 19.1491 134.596 12.8566 115.689 17.4937C90.0637 23.7763 86.2521 40.7939 89.9565 56.0614C96.1269 81.3162 119.484 86.9754 136.998 84.5921C162.516 81.1018 162.95 64.3683 178.952 61.8104C186.431 60.6188 191.282 62.1445 198.889 60.8132C206.496 59.4819 218.843 50.3074 222.477 46.8122C226.112 43.3169 238.973 23.0084 237.536 15.7386Z" fill="black"/>
<path fill-rule="evenodd" clip-rule="evenodd" d="M196.955 42.923C194.274 28.1442 201.699 15.0356 213.541 13.6445C225.383 12.2534 237.166 23.1082 239.847 37.897C242.527 52.6859 235.102 65.7844 223.26 67.1755C211.418 68.5667 199.635 57.7019 196.955 42.923Z" fill="#E49D75"/>
<path fill-rule="evenodd" clip-rule="evenodd" d="M232.663 19.4483C234.62 29.1413 204.283 44.7529 194.74 46.7124C185.198 48.672 181.563 30.3679 181.563 30.3679C181.563 30.3679 213.841 -4.79921 232.663 19.4483Z" fill="black"/>
<path fill-rule="evenodd" clip-rule="evenodd" d="M193.792 50.6514C193.791 49.6027 194.124 48.5773 194.75 47.7049C195.376 46.8325 196.266 46.1524 197.307 45.7506C198.349 45.3488 199.495 45.2434 200.601 45.4478C201.707 45.6521 202.723 46.1571 203.52 46.8986C204.317 47.6402 204.86 48.585 205.08 49.6136C205.3 50.6423 205.186 51.7084 204.754 52.6771C204.322 53.6458 203.591 54.4735 202.653 55.0555C201.715 55.6376 200.613 55.9477 199.485 55.9467C197.975 55.9467 196.527 55.3888 195.46 54.3958C194.392 53.4027 193.792 52.0558 193.792 50.6514Z" fill="#E49D75"/>
<path d="M183.343 94.8884C186.093 92.7584 189.35 91.268 192.842 90.5405" stroke="#6BD5E1" stroke-width="4" stroke-linecap="round" stroke-linejoin="round"/>
<path d="M192.864 90.5405C209.665 87.11 227.64 102.756 233.006 125.493C235.151 134.503 234.963 143.274 232.937 150.793" stroke="#6BD5E1" stroke-width="4" stroke-linecap="round" stroke-linejoin="round"/>
</svg>
